<mxfile host="app.diagrams.net" modified="2023-12-16T12:23:52.238Z" agent="Mozilla/5.0 (Windows NT 10.0; Win64; x64) AppleWebKit/537.36 (KHTML, like Gecko) Chrome/120.0.0.0 Safari/537.36" etag="5thCIZn6UbYAnyNF2yKU" version="22.1.11" type="device">
  <diagram name="Страница — 1" id="ufh_rRYzETmT3Y5tC9U0">
    <mxGraphModel dx="3305" dy="1582" grid="1" gridSize="10" guides="1" tooltips="1" connect="1" arrows="1" fold="1" page="1" pageScale="1" pageWidth="700" pageHeight="700" math="0" shadow="0">
      <root>
        <mxCell id="0" />
        <mxCell id="1" parent="0" />
        <mxCell id="RrG6OvJkWaYo6sZG4Tey-38" style="rounded=0;orthogonalLoop=1;jettySize=auto;html=1;" parent="1" source="RrG6OvJkWaYo6sZG4Tey-1" target="RrG6OvJkWaYo6sZG4Tey-8" edge="1">
          <mxGeometry relative="1" as="geometry" />
        </mxCell>
        <mxCell id="RrG6OvJkWaYo6sZG4Tey-39" style="rounded=0;orthogonalLoop=1;jettySize=auto;html=1;" parent="1" source="RrG6OvJkWaYo6sZG4Tey-1" target="RrG6OvJkWaYo6sZG4Tey-20" edge="1">
          <mxGeometry relative="1" as="geometry" />
        </mxCell>
        <mxCell id="RrG6OvJkWaYo6sZG4Tey-51" style="rounded=0;orthogonalLoop=1;jettySize=auto;html=1;" parent="1" source="RrG6OvJkWaYo6sZG4Tey-1" target="RrG6OvJkWaYo6sZG4Tey-46" edge="1">
          <mxGeometry relative="1" as="geometry" />
        </mxCell>
        <mxCell id="RrG6OvJkWaYo6sZG4Tey-1" value="User" style="shape=umlActor;verticalLabelPosition=bottom;verticalAlign=top;html=1;outlineConnect=0;fontSize=20;" parent="1" vertex="1">
          <mxGeometry x="60" y="635" width="70" height="130" as="geometry" />
        </mxCell>
        <mxCell id="RrG6OvJkWaYo6sZG4Tey-58" style="rounded=0;orthogonalLoop=1;jettySize=auto;html=1;" parent="1" source="RrG6OvJkWaYo6sZG4Tey-5" target="RrG6OvJkWaYo6sZG4Tey-53" edge="1">
          <mxGeometry relative="1" as="geometry" />
        </mxCell>
        <mxCell id="RrG6OvJkWaYo6sZG4Tey-59" style="rounded=0;orthogonalLoop=1;jettySize=auto;html=1;" parent="1" source="RrG6OvJkWaYo6sZG4Tey-5" target="RrG6OvJkWaYo6sZG4Tey-52" edge="1">
          <mxGeometry relative="1" as="geometry" />
        </mxCell>
        <mxCell id="RrG6OvJkWaYo6sZG4Tey-63" style="rounded=0;orthogonalLoop=1;jettySize=auto;html=1;" parent="1" source="RrG6OvJkWaYo6sZG4Tey-5" target="RrG6OvJkWaYo6sZG4Tey-54" edge="1">
          <mxGeometry relative="1" as="geometry" />
        </mxCell>
        <mxCell id="RrG6OvJkWaYo6sZG4Tey-64" style="rounded=0;orthogonalLoop=1;jettySize=auto;html=1;" parent="1" source="RrG6OvJkWaYo6sZG4Tey-5" target="RrG6OvJkWaYo6sZG4Tey-55" edge="1">
          <mxGeometry relative="1" as="geometry" />
        </mxCell>
        <mxCell id="RrG6OvJkWaYo6sZG4Tey-5" value="" style="shape=cylinder3;whiteSpace=wrap;html=1;boundedLbl=1;backgroundOutline=1;size=15;" parent="1" vertex="1">
          <mxGeometry x="1200" y="710" width="140" height="50" as="geometry" />
        </mxCell>
        <mxCell id="RrG6OvJkWaYo6sZG4Tey-6" value="RobotVacuumCleaner" style="text;html=1;strokeColor=none;fillColor=none;align=center;verticalAlign=middle;whiteSpace=wrap;rounded=0;fontSize=20;" parent="1" vertex="1">
          <mxGeometry x="1240" y="760" width="60" height="30" as="geometry" />
        </mxCell>
        <mxCell id="RrG6OvJkWaYo6sZG4Tey-15" style="rounded=0;orthogonalLoop=1;jettySize=auto;html=1;" parent="1" source="RrG6OvJkWaYo6sZG4Tey-8" target="RrG6OvJkWaYo6sZG4Tey-10" edge="1">
          <mxGeometry relative="1" as="geometry" />
        </mxCell>
        <mxCell id="RrG6OvJkWaYo6sZG4Tey-8" value="Настройка" style="ellipse;whiteSpace=wrap;html=1;fontSize=20;" parent="1" vertex="1">
          <mxGeometry x="240" y="220" width="150" height="80" as="geometry" />
        </mxCell>
        <mxCell id="RrG6OvJkWaYo6sZG4Tey-9" value="Первичная&lt;br&gt;(Авто)" style="ellipse;whiteSpace=wrap;html=1;fontSize=20;" parent="1" vertex="1">
          <mxGeometry x="400" y="90" width="150" height="80" as="geometry" />
        </mxCell>
        <mxCell id="RrG6OvJkWaYo6sZG4Tey-18" style="rounded=0;orthogonalLoop=1;jettySize=auto;html=1;" parent="1" source="RrG6OvJkWaYo6sZG4Tey-10" target="RrG6OvJkWaYo6sZG4Tey-13" edge="1">
          <mxGeometry relative="1" as="geometry" />
        </mxCell>
        <mxCell id="RrG6OvJkWaYo6sZG4Tey-41" style="rounded=0;orthogonalLoop=1;jettySize=auto;html=1;" parent="1" source="RrG6OvJkWaYo6sZG4Tey-10" target="RrG6OvJkWaYo6sZG4Tey-40" edge="1">
          <mxGeometry relative="1" as="geometry" />
        </mxCell>
        <mxCell id="RrG6OvJkWaYo6sZG4Tey-57" style="rounded=0;orthogonalLoop=1;jettySize=auto;html=1;" parent="1" source="RrG6OvJkWaYo6sZG4Tey-10" target="RrG6OvJkWaYo6sZG4Tey-56" edge="1">
          <mxGeometry relative="1" as="geometry" />
        </mxCell>
        <mxCell id="RrG6OvJkWaYo6sZG4Tey-68" style="rounded=0;orthogonalLoop=1;jettySize=auto;html=1;" parent="1" source="RrG6OvJkWaYo6sZG4Tey-10" target="RrG6OvJkWaYo6sZG4Tey-66" edge="1">
          <mxGeometry relative="1" as="geometry" />
        </mxCell>
        <mxCell id="SfJDqX4aFAkBjJDL_cXy-1" style="rounded=0;orthogonalLoop=1;jettySize=auto;html=1;" edge="1" parent="1" source="RrG6OvJkWaYo6sZG4Tey-10" target="RrG6OvJkWaYo6sZG4Tey-21">
          <mxGeometry relative="1" as="geometry" />
        </mxCell>
        <mxCell id="RrG6OvJkWaYo6sZG4Tey-10" value="Детальная" style="ellipse;whiteSpace=wrap;html=1;fontSize=20;" parent="1" vertex="1">
          <mxGeometry x="450" y="270" width="150" height="80" as="geometry" />
        </mxCell>
        <mxCell id="RrG6OvJkWaYo6sZG4Tey-13" value="Задать имя" style="ellipse;whiteSpace=wrap;html=1;fontSize=20;" parent="1" vertex="1">
          <mxGeometry x="660" y="260" width="150" height="80" as="geometry" />
        </mxCell>
        <mxCell id="RrG6OvJkWaYo6sZG4Tey-14" style="rounded=0;orthogonalLoop=1;jettySize=auto;html=1;" parent="1" source="RrG6OvJkWaYo6sZG4Tey-8" target="RrG6OvJkWaYo6sZG4Tey-9" edge="1">
          <mxGeometry relative="1" as="geometry" />
        </mxCell>
        <mxCell id="RrG6OvJkWaYo6sZG4Tey-19" style="rounded=0;orthogonalLoop=1;jettySize=auto;html=1;" parent="1" source="RrG6OvJkWaYo6sZG4Tey-20" target="RrG6OvJkWaYo6sZG4Tey-25" edge="1">
          <mxGeometry relative="1" as="geometry" />
        </mxCell>
        <mxCell id="RrG6OvJkWaYo6sZG4Tey-35" style="rounded=0;orthogonalLoop=1;jettySize=auto;html=1;" parent="1" source="RrG6OvJkWaYo6sZG4Tey-20" target="RrG6OvJkWaYo6sZG4Tey-32" edge="1">
          <mxGeometry relative="1" as="geometry" />
        </mxCell>
        <mxCell id="RrG6OvJkWaYo6sZG4Tey-69" style="rounded=0;orthogonalLoop=1;jettySize=auto;html=1;entryX=0;entryY=0.5;entryDx=0;entryDy=0;" parent="1" source="RrG6OvJkWaYo6sZG4Tey-20" target="RrG6OvJkWaYo6sZG4Tey-53" edge="1">
          <mxGeometry relative="1" as="geometry" />
        </mxCell>
        <mxCell id="RrG6OvJkWaYo6sZG4Tey-20" value="Управление" style="ellipse;whiteSpace=wrap;html=1;fontSize=20;" parent="1" vertex="1">
          <mxGeometry x="220" y="995" width="150" height="80" as="geometry" />
        </mxCell>
        <mxCell id="RrG6OvJkWaYo6sZG4Tey-21" value="Расписание" style="ellipse;whiteSpace=wrap;html=1;fontSize=20;" parent="1" vertex="1">
          <mxGeometry x="650" y="150" width="150" height="80" as="geometry" />
        </mxCell>
        <mxCell id="RrG6OvJkWaYo6sZG4Tey-25" value="Ручное" style="ellipse;whiteSpace=wrap;html=1;fontSize=20;" parent="1" vertex="1">
          <mxGeometry x="410" y="1060" width="150" height="80" as="geometry" />
        </mxCell>
        <mxCell id="RrG6OvJkWaYo6sZG4Tey-36" style="rounded=0;orthogonalLoop=1;jettySize=auto;html=1;" parent="1" source="RrG6OvJkWaYo6sZG4Tey-32" target="RrG6OvJkWaYo6sZG4Tey-34" edge="1">
          <mxGeometry relative="1" as="geometry" />
        </mxCell>
        <mxCell id="RrG6OvJkWaYo6sZG4Tey-37" style="rounded=0;orthogonalLoop=1;jettySize=auto;html=1;" parent="1" source="RrG6OvJkWaYo6sZG4Tey-32" target="RrG6OvJkWaYo6sZG4Tey-33" edge="1">
          <mxGeometry relative="1" as="geometry" />
        </mxCell>
        <mxCell id="RrG6OvJkWaYo6sZG4Tey-32" value="Уборка" style="ellipse;whiteSpace=wrap;html=1;fontSize=20;" parent="1" vertex="1">
          <mxGeometry x="240" y="1125" width="150" height="80" as="geometry" />
        </mxCell>
        <mxCell id="RrG6OvJkWaYo6sZG4Tey-33" value="Влажная" style="ellipse;whiteSpace=wrap;html=1;fontSize=20;" parent="1" vertex="1">
          <mxGeometry x="370" y="1245" width="150" height="80" as="geometry" />
        </mxCell>
        <mxCell id="RrG6OvJkWaYo6sZG4Tey-34" value="Сухая" style="ellipse;whiteSpace=wrap;html=1;fontSize=20;" parent="1" vertex="1">
          <mxGeometry x="150" y="1245" width="150" height="80" as="geometry" />
        </mxCell>
        <mxCell id="RrG6OvJkWaYo6sZG4Tey-40" value="Построить карту помещения" style="ellipse;whiteSpace=wrap;html=1;fontSize=20;" parent="1" vertex="1">
          <mxGeometry x="660" y="370" width="150" height="80" as="geometry" />
        </mxCell>
        <mxCell id="RrG6OvJkWaYo6sZG4Tey-42" value="Обновить ПО" style="ellipse;whiteSpace=wrap;html=1;fontSize=20;" parent="1" vertex="1">
          <mxGeometry x="420" y="560" width="150" height="80" as="geometry" />
        </mxCell>
        <mxCell id="RrG6OvJkWaYo6sZG4Tey-43" value="Запуск диагностики" style="ellipse;whiteSpace=wrap;html=1;fontSize=20;" parent="1" vertex="1">
          <mxGeometry x="430" y="660" width="150" height="80" as="geometry" />
        </mxCell>
        <mxCell id="RrG6OvJkWaYo6sZG4Tey-47" style="rounded=0;orthogonalLoop=1;jettySize=auto;html=1;" parent="1" source="RrG6OvJkWaYo6sZG4Tey-46" target="RrG6OvJkWaYo6sZG4Tey-42" edge="1">
          <mxGeometry relative="1" as="geometry" />
        </mxCell>
        <mxCell id="RrG6OvJkWaYo6sZG4Tey-48" style="rounded=0;orthogonalLoop=1;jettySize=auto;html=1;" parent="1" source="RrG6OvJkWaYo6sZG4Tey-46" target="RrG6OvJkWaYo6sZG4Tey-43" edge="1">
          <mxGeometry relative="1" as="geometry" />
        </mxCell>
        <mxCell id="RrG6OvJkWaYo6sZG4Tey-50" style="rounded=0;orthogonalLoop=1;jettySize=auto;html=1;" parent="1" source="RrG6OvJkWaYo6sZG4Tey-46" target="RrG6OvJkWaYo6sZG4Tey-49" edge="1">
          <mxGeometry relative="1" as="geometry" />
        </mxCell>
        <mxCell id="RrG6OvJkWaYo6sZG4Tey-46" value="Обслуживание" style="ellipse;whiteSpace=wrap;html=1;fontSize=20;" parent="1" vertex="1">
          <mxGeometry x="230" y="660" width="150" height="80" as="geometry" />
        </mxCell>
        <mxCell id="RrG6OvJkWaYo6sZG4Tey-49" value="Обращение в тех.поддержку" style="ellipse;whiteSpace=wrap;html=1;fontSize=20;" parent="1" vertex="1">
          <mxGeometry x="420" y="760" width="150" height="80" as="geometry" />
        </mxCell>
        <mxCell id="RrG6OvJkWaYo6sZG4Tey-52" value="Оповещения (ошибки, статус)" style="ellipse;whiteSpace=wrap;html=1;fontSize=20;" parent="1" vertex="1">
          <mxGeometry x="940" y="520" width="180" height="100" as="geometry" />
        </mxCell>
        <mxCell id="RrG6OvJkWaYo6sZG4Tey-53" value="Возврат на базу" style="ellipse;whiteSpace=wrap;html=1;fontSize=20;" parent="1" vertex="1">
          <mxGeometry x="900" y="960" width="150" height="80" as="geometry" />
        </mxCell>
        <mxCell id="RrG6OvJkWaYo6sZG4Tey-54" value="Самоочистка" style="ellipse;whiteSpace=wrap;html=1;fontSize=20;" parent="1" vertex="1">
          <mxGeometry x="890" y="640" width="150" height="80" as="geometry" />
        </mxCell>
        <mxCell id="RrG6OvJkWaYo6sZG4Tey-55" value="Проверка обновления ПО/Обновление ПО" style="ellipse;whiteSpace=wrap;html=1;fontSize=20;" parent="1" vertex="1">
          <mxGeometry x="850" y="765" width="200" height="110" as="geometry" />
        </mxCell>
        <mxCell id="RrG6OvJkWaYo6sZG4Tey-56" value="Обновление&lt;br&gt;(Ручное/Авто)" style="ellipse;whiteSpace=wrap;html=1;fontSize=20;" parent="1" vertex="1">
          <mxGeometry x="510" y="440" width="150" height="80" as="geometry" />
        </mxCell>
        <mxCell id="RrG6OvJkWaYo6sZG4Tey-66" value="Звуковое оповещение" style="ellipse;whiteSpace=wrap;html=1;fontSize=20;" parent="1" vertex="1">
          <mxGeometry x="320" y="430" width="150" height="80" as="geometry" />
        </mxCell>
      </root>
    </mxGraphModel>
  </diagram>
</mxfile>
